<svg width="490" height="71" viewBox="0 0 490 71" fill="none" xmlns="http://www.w3.org/2000/svg">
<g filter="url(#filter0_b_5_2)">
<path d="M37.7888 70.344C32.4768 70.344 27.5488 69.512 23.0048 67.848C18.4608 66.12 14.5248 63.688 11.1968 60.552C7.93275 57.416 5.37275 53.736 3.51675 49.512C1.66075 45.224 0.73275 40.52 0.73275 35.4C0.73275 30.28 1.66075 25.608 3.51675 21.384C5.37275 17.096 7.96475 13.384 11.2928 10.248C14.6208 7.112 18.5568 4.712 23.1008 3.048C27.7088 1.32 32.7328 0.455996 38.1728 0.455996C44.5088 0.455996 50.1728 1.512 55.1648 3.62399C60.1568 5.736 64.2848 8.776 67.5488 12.744L55.4528 23.688C53.1488 21.192 50.6528 19.336 47.9648 18.12C45.3408 16.84 42.3968 16.2 39.1328 16.2C36.2528 16.2 33.6288 16.648 31.2608 17.544C28.8928 18.44 26.8768 19.752 25.2128 21.48C23.5488 23.144 22.2368 25.16 21.2768 27.528C20.3808 29.832 19.9328 32.456 19.9328 35.4C19.9328 38.216 20.3808 40.808 21.2768 43.176C22.2368 45.544 23.5488 47.592 25.2128 49.32C26.8768 50.984 28.8608 52.296 31.1648 53.256C33.5328 54.152 36.1248 54.6 38.9408 54.6C41.7568 54.6 44.5088 54.152 47.1968 53.256C49.8848 52.296 52.6048 50.696 55.3568 48.456L66.0128 61.8C62.1728 64.552 57.7248 66.664 52.6688 68.136C47.6128 69.608 42.6528 70.344 37.7888 70.344ZM49.2128 59.304V33.96H66.0128V61.8L49.2128 59.304ZM69.9997 69L99.6638 1.8H118.384L148.144 69H128.368L105.136 11.112H112.624L89.3918 69H69.9997ZM86.2238 55.944L91.1198 41.928H123.952L128.848 55.944H86.2238ZM153.533 69V1.8H172.541V53.928H204.605V69H153.533ZM212.126 69V1.8H231.134V53.928H263.198V69H212.126ZM263.312 69L292.976 1.8H311.696L341.456 69H321.68L298.448 11.112H305.936L282.704 69H263.312ZM279.536 55.944L284.432 41.928H317.264L322.16 55.944H279.536ZM379.508 70.344C374.196 70.344 369.268 69.512 364.724 67.848C360.18 66.12 356.244 63.688 352.916 60.552C349.652 57.416 347.092 53.736 345.236 49.512C343.38 45.224 342.452 40.52 342.452 35.4C342.452 30.28 343.38 25.608 345.236 21.384C347.092 17.096 349.684 13.384 353.012 10.248C356.34 7.112 360.276 4.712 364.82 3.048C369.428 1.32 374.452 0.455996 379.892 0.455996C386.228 0.455996 391.892 1.512 396.884 3.62399C401.876 5.736 406.004 8.776 409.268 12.744L397.172 23.688C394.868 21.192 392.372 19.336 389.684 18.12C387.06 16.84 384.116 16.2 380.852 16.2C377.972 16.2 375.348 16.648 372.98 17.544C370.612 18.44 368.596 19.752 366.932 21.48C365.268 23.144 363.956 25.16 362.996 27.528C362.1 29.832 361.652 32.456 361.652 35.4C361.652 38.216 362.1 40.808 362.996 43.176C363.956 45.544 365.268 47.592 366.932 49.32C368.596 50.984 370.58 52.296 372.884 53.256C375.252 54.152 377.844 54.6 380.66 54.6C383.476 54.6 386.228 54.152 388.916 53.256C391.604 52.296 394.324 50.696 397.076 48.456L407.732 61.8C403.892 64.552 399.444 66.664 394.388 68.136C389.332 69.608 384.372 70.344 379.508 70.344ZM390.932 59.304V33.96H407.732V61.8L390.932 59.304ZM411.718 69L441.383 1.8H460.103L489.863 69H470.087L446.855 11.112H454.343L431.111 69H411.718ZM427.943 55.944L432.839 41.928H465.671L470.567 55.944H427.943Z" fill="#9452FF"/>
</g>
<defs>
<filter id="filter0_b_5_2" x="-3.26727" y="-3.54401" width="497.13" height="77.888" filterUnits="userSpaceOnUse" color-interpolation-filters="sRGB">
<feFlood flood-opacity="0" result="BackgroundImageFix"/>
<feGaussianBlur in="BackgroundImageFix" stdDeviation="2"/>
<feComposite in2="SourceAlpha" operator="in" result="effect1_backgroundBlur_5_2"/>
<feBlend mode="normal" in="SourceGraphic" in2="effect1_backgroundBlur_5_2" result="shape"/>
</filter>
</defs>
</svg>
